<?xml version="1.0" encoding="utf-8"?>
<!-- Generator: Adobe Illustrator 24.1.1, SVG Export Plug-In . SVG Version: 6.00 Build 0)  -->
<svg version="1.1" id="Layer_1" xmlns="http://www.w3.org/2000/svg" xmlns:xlink="http://www.w3.org/1999/xlink" x="0px" y="0px"
	 viewBox="0 0 512 512" style="enable-background:new 0 0 512 512;" xml:space="preserve">
<style type="text/css">
	.st0{fill:#7ED09E;}
	.st1{fill:#749CA5;}
	.st2{fill:#3B4F56;}
	.st3{fill:#4FBA6F;}
	.st4{fill:#FFFFFF;}
	.st5{fill:#263238;}
</style>
<g id="Page-1">
	<g id="_x31_25---Play">
		<path class="st0" d="M306.8,429.8c-2.3-2.3-5.6-3.2-8.7-2.3c-13.8,3.4-27.9,5.1-42,5c-4.9,0-8.8,4-8.8,8.8c0,4.9,4,8.8,8.8,8.8
			c15.6,0,31.1-1.9,46.2-5.6c3.2-0.7,5.7-3,6.7-6.1C309.9,435.5,309,432.1,306.8,429.8z M318.5,240l-88.9-60.5
			c-5.6-3.5-12.6-3.6-18.3-0.2c-5.6,3.4-8.8,9.7-8.3,16.2v120.9c-0.5,6.5,2.7,12.8,8.3,16.2c5.6,3.4,12.7,3.3,18.2-0.2l88.9-60.5
			c5.1-3.7,8.2-9.7,8.2-16S323.6,243.7,318.5,240z M379.5,400.2c-0.5-3.1-2.5-5.8-5.5-6.9c-2.9-1.2-6.3-0.7-8.7,1.3
			c-7.9,6.3-16.4,11.8-25.2,16.6c-3.5,1.9-5.3,6-4.3,9.9c1,3.9,4.5,6.6,8.6,6.6c1.5,0,2.9-0.3,4.2-1c9.7-5.3,19-11.4,27.7-18.3
			C378.7,406.5,380,403.4,379.5,400.2z M441.4,247.2c-4.9,0-8.8,4-8.8,8.8c0.1,37.2-11.7,73.5-33.6,103.5c-2,2.7-2.2,6.2-0.7,9.2
			c1.5,3,4.5,4.8,7.9,4.8c2.8,0,5.5-1.4,7.1-3.7c24.1-33.1,37.1-73,37-113.9C450.2,251.1,446.3,247.2,441.4,247.2z M374,393.3
			c-2.9-1.2-6.3-0.7-8.7,1.3c-7.9,6.3-16.4,11.8-25.2,16.6c-3.5,1.9-5.3,6-4.3,9.9c1,3.9,4.5,6.6,8.6,6.6c1.5,0,2.9-0.3,4.2-1
			c9.7-5.3,19-11.4,27.7-18.3c2.5-2,3.7-5.1,3.3-8.2S377,394.5,374,393.3z M318.5,240l-88.9-60.5c-5.6-3.5-12.6-3.6-18.3-0.2
			c-5.6,3.4-8.8,9.7-8.3,16.2v120.9c-0.5,6.5,2.7,12.8,8.3,16.2c5.6,3.4,12.7,3.3,18.2-0.2l88.9-60.5c5.1-3.7,8.2-9.7,8.2-16
			S323.6,243.7,318.5,240z M298,427.5c-13.8,3.4-27.9,5.1-42,5c-4.9,0-8.8,4-8.8,8.8c0,4.9,4,8.8,8.8,8.8c15.6,0,31.1-1.9,46.2-5.6
			c3.2-0.7,5.7-3,6.7-6.1c1-3.1,0.1-6.5-2.1-8.8S301.2,426.6,298,427.5z M441.4,247.2c-4.9,0-8.8,4-8.8,8.8
			c0.1,37.2-11.7,73.5-33.6,103.5c-2,2.7-2.2,6.2-0.7,9.2c1.5,3,4.5,4.8,7.9,4.8c2.8,0,5.5-1.4,7.1-3.7c24.1-33.1,37.1-73,37-113.9
			C450.2,251.1,446.3,247.2,441.4,247.2z M374,393.3c-2.9-1.2-6.3-0.7-8.7,1.3c-7.9,6.3-16.4,11.8-25.2,16.6c-3.5,1.9-5.3,6-4.3,9.9
			c1,3.9,4.5,6.6,8.6,6.6c1.5,0,2.9-0.3,4.2-1c9.7-5.3,19-11.4,27.7-18.3c2.5-2,3.7-5.1,3.3-8.2S377,394.5,374,393.3z M318.5,240
			l-88.9-60.5c-5.6-3.5-12.6-3.6-18.3-0.2c-5.6,3.4-8.8,9.7-8.3,16.2v120.9c-0.5,6.5,2.7,12.8,8.3,16.2c5.6,3.4,12.7,3.3,18.2-0.2
			l88.9-60.5c5.1-3.7,8.2-9.7,8.2-16S323.6,243.7,318.5,240z M298,427.5c-13.8,3.4-27.9,5.1-42,5c-4.9,0-8.8,4-8.8,8.8
			c0,4.9,4,8.8,8.8,8.8c15.6,0,31.1-1.9,46.2-5.6c3.2-0.7,5.7-3,6.7-6.1c1-3.1,0.1-6.5-2.1-8.8S301.2,426.6,298,427.5z M441.4,247.2
			c-4.9,0-8.8,4-8.8,8.8c0.1,37.2-11.7,73.5-33.6,103.5c-2,2.7-2.2,6.2-0.7,9.2c1.5,3,4.5,4.8,7.9,4.8c2.8,0,5.5-1.4,7.1-3.7
			c24.1-33.1,37.1-73,37-113.9C450.2,251.1,446.3,247.2,441.4,247.2z"/>
		<path class="st1" d="M256,0C114.6,0,0,114.6,0,256s114.6,256,256,256s256-114.6,256-256S397.4,0,256,0z M256,485.5
			C129.3,485.4,26.6,382.7,26.5,256c-0.1-31.6,6.5-62.9,19.2-91.8c1.1-3.1,3.9-5.3,7.1-5.7c1.7-0.2,3.3,0.1,4.8,0.7
			c6.5-13.4,14.3-25.9,23.3-37.6c-1-0.8-1.8-1.9-2.4-3.1c-1.5-3.1-1-6.8,1.2-9.4c5.8-7,12.1-13.6,18.7-19.9c2.3-2.2,5.6-2.9,8.6-2
			c1.5,0.5,2.9,1.3,4,2.5c14.6-12.7,30.9-23.6,48.5-32.2c-0.7-1.5-0.9-3.1-0.7-4.8c0.4-3.2,2.5-5.9,5.5-7.1
			c28.9-12.7,60.2-19.2,91.8-19.1c126.8,0,229.5,102.8,229.5,229.5S382.8,485.5,256,485.5z"/>
		<path class="st2" d="M451.7,174.9C418.9,95.8,341.7,44.1,256,44.1c-29.2-0.1-58,5.9-84.7,17.6c-2.9,1.4-6.3,1.1-9-0.8
			c-1.3-0.9-2.2-2.1-2.9-3.5c-17.6,8.6-33.9,19.4-48.5,32.2c1,1.1,1.7,2.4,2.1,3.9c0.7,3.1-0.2,6.3-2.5,8.5
			c-6.1,5.8-11.9,11.9-17.3,18.4c-1.7,2-4.2,3.2-6.8,3.2c-2.1,0-4-0.7-5.6-2c-9,11.7-16.8,24.3-23.3,37.6c1.4,0.6,2.6,1.6,3.5,2.9
			c1.9,2.7,2.1,6.2,0.6,9.1C50.1,198,44.1,226.8,44.1,256c0,85.7,51.6,162.9,130.8,195.7c79.2,32.8,170.3,14.7,230.9-45.9
			S484.5,254.1,451.7,174.9z M308.9,438.6c-0.9,3.1-3.5,5.4-6.7,6.1c-15.1,3.7-30.7,5.6-46.2,5.6c-4.9,0-8.8-4-8.8-8.8
			c0-4.9,4-8.8,8.8-8.8c14.2,0,28.3-1.7,42-5c3.1-0.9,6.5,0,8.7,2.3S309.9,435.5,308.9,438.6z M318.5,272l-88.9,60.5
			c-5.6,3.5-12.6,3.6-18.2,0.2c-5.6-3.4-8.8-9.7-8.3-16.2V195.5c-0.5-6.5,2.7-12.8,8.3-16.2c5.6-3.4,12.7-3.3,18.3,0.2l88.9,60.5
			c5.1,3.7,8.2,9.7,8.2,16S323.6,268.3,318.5,272z M376.2,408.4c-8.7,6.9-18,13-27.7,18.3c-1.3,0.7-2.8,1.1-4.2,1
			c-4,0-7.6-2.7-8.6-6.6c-1-3.9,0.8-8,4.3-9.9c8.9-4.8,17.3-10.4,25.2-16.6c2.5-2,5.8-2.4,8.7-1.3c2.9,1.2,5,3.8,5.5,6.9
			S378.7,406.5,376.2,408.4z M413.2,369.9c-1.7,2.3-4.3,3.7-7.1,3.7c-3.3,0-6.4-1.9-7.9-4.8c-1.5-3-1.2-6.5,0.7-9.2
			c21.9-30.1,33.7-66.3,33.6-103.5c0-4.9,4-8.8,8.8-8.8c4.9,0,8.8,4,8.8,8.8C450.3,296.9,437.3,336.8,413.2,369.9z"/>
		<path class="st3" d="M306.8,429.8c2.3,2.3,3.1,5.7,2.1,8.8c-0.9,3.1-3.5,5.4-6.7,6.1c-15.1,3.7-30.7,5.6-46.2,5.6
			c-4.9,0-8.8-4-8.8-8.8c0-4.9,4-8.8,8.8-8.8c14.2,0,28.3-1.7,42-5C301.2,426.6,304.5,427.5,306.8,429.8z"/>
		<path class="st3" d="M326.6,256c0,6.3-3,12.3-8.2,16l-88.9,60.5c-5.6,3.5-12.6,3.6-18.2,0.2c-5.6-3.4-8.8-9.7-8.3-16.2V195.5
			c-0.5-6.5,2.7-12.8,8.3-16.2c5.6-3.4,12.7-3.3,18.3,0.2l88.9,60.5C323.6,243.7,326.6,249.7,326.6,256z"/>
		<path class="st3" d="M379.5,400.2c0.5,3.1-0.8,6.3-3.3,8.2c-8.7,6.9-18,13-27.7,18.3c-1.3,0.7-2.8,1.1-4.2,1c-4,0-7.6-2.7-8.6-6.6
			c-1-3.9,0.8-8,4.3-9.9c8.9-4.8,17.3-10.4,25.2-16.6c2.5-2,5.8-2.4,8.7-1.3C377,394.5,379,397.1,379.5,400.2z"/>
		<path class="st3" d="M450.2,256c0.1,40.9-12.9,80.8-37,113.9c-1.7,2.3-4.3,3.7-7.1,3.7c-3.3,0-6.4-1.9-7.9-4.8
			c-1.5-3-1.2-6.5,0.7-9.2c21.9-30.1,33.7-66.3,33.6-103.5c0-4.9,4-8.8,8.8-8.8C446.3,247.2,450.2,251.1,450.2,256z"/>
		<g>
			<path class="st4" d="M308.9,438.6c-0.9,3.1-3.5,5.4-6.7,6.1c-15.1,3.7-30.7,5.6-46.2,5.6c-4.9,0-8.8-4-8.8-8.8
				c0-4.9,4-8.8,8.8-8.8c14.2,0,28.3-1.7,42-5c3.1-0.9,6.5,0,8.7,2.3S309.9,435.5,308.9,438.6z"/>
			<path class="st4" d="M376.2,408.4c-8.7,6.9-18,13-27.7,18.3c-1.3,0.7-2.8,1.1-4.2,1c-4,0-7.6-2.7-8.6-6.6c-1-3.9,0.8-8,4.3-9.9
				c8.9-4.8,17.3-10.4,25.2-16.6c2.5-2,5.8-2.4,8.7-1.3c2.9,1.2,5,3.8,5.5,6.9S378.7,406.5,376.2,408.4z"/>
			<path class="st4" d="M450.2,256c0.1,40.9-12.9,80.8-37,113.9c-1.7,2.3-4.3,3.7-7.1,3.7c-3.3,0-6.4-1.9-7.9-4.8
				c-1.5-3-1.2-6.5,0.7-9.2c21.9-30.1,33.7-66.3,33.6-103.5c0-4.9,4-8.8,8.8-8.8C446.3,247.2,450.2,251.1,450.2,256z"/>
		</g>
		<path class="st5" d="M476.7,256c0,121.9-98.8,220.7-220.7,220.7S35.3,377.9,35.3,256c0-34.7,8-67.6,22.3-96.8
			c1.4,0.6,2.6,1.6,3.5,2.9c1.9,2.7,2.1,6.2,0.6,9.1C50.1,198,44.1,226.8,44.1,256c0,85.7,51.6,162.9,130.8,195.7
			c79.2,32.8,170.3,14.7,230.9-45.9s78.7-151.7,45.9-230.9C418.9,95.8,341.7,44.1,256,44.1c-29.2-0.1-58,5.9-84.7,17.6
			c-2.9,1.4-6.3,1.1-9-0.8c-1.3-0.9-2.2-2.1-2.9-3.5c29.2-14.2,61.9-22.2,96.5-22.2C377.9,35.3,476.7,134.1,476.7,256z"/>
		<path class="st5" d="M485.5,256c0,126.8-102.8,229.5-229.5,229.5C129.3,485.4,26.6,382.7,26.5,256c-0.1-31.6,6.5-62.9,19.2-91.8
			c1.1-3.1,3.9-5.3,7.1-5.7c1.7-0.2,3.3,0.1,4.8,0.7c-14.3,29.2-22.3,62.1-22.3,96.8c0,121.9,98.8,220.7,220.7,220.7
			S476.7,377.9,476.7,256S377.9,35.3,256,35.3c-34.6,0-67.4,8-96.5,22.2c-0.7-1.5-0.9-3.1-0.7-4.8c0.4-3.2,2.5-5.9,5.5-7.1
			c28.9-12.7,60.2-19.2,91.8-19.1C382.8,26.5,485.5,129.2,485.5,256z"/>
		<path class="st5" d="M111,89.7c-11,9.6-21.1,20.3-30,31.9c-1-0.8-1.8-1.9-2.4-3.1c-1.5-3.1-1-6.8,1.2-9.4
			c5.8-7,12.1-13.6,18.7-19.9c2.3-2.2,5.6-2.9,8.6-2C108.6,87.6,109.9,88.5,111,89.7z"/>
		<path class="st5" d="M110.6,102c-6.1,5.8-11.9,11.9-17.3,18.4c-1.7,2-4.2,3.2-6.8,3.2c-2.1,0-4-0.7-5.6-2c9-11.6,19-22.3,30-31.9
			c1,1.1,1.7,2.4,2.1,3.9C113.8,96.7,112.9,99.9,110.6,102z"/>
		<path class="st4" d="M326.6,256c0,6.3-3,12.3-8.2,16l-88.9,60.5c-5.6,3.5-12.6,3.6-18.2,0.2c-5.6-3.4-8.8-9.7-8.3-16.2V195.5
			c-0.5-6.5,2.7-12.8,8.3-16.2c5.6-3.4,12.7-3.3,18.3,0.2l88.9,60.5C323.6,243.7,326.6,249.7,326.6,256z"/>
	</g>
</g>
</svg>
